<svg width="32" height="31" viewBox="0 0 32 31" fill="none" xmlns="http://www.w3.org/2000/svg">
<path d="M16.9953 2.30882C17.0917 2.38219 17.2194 2.39125 17.3233 2.34143L18.4519 3.20647L19.0531 9.74817C18.9529 9.80342 18.8886 9.91031 18.9 10.0272C18.9151 10.1884 19.0626 10.307 19.2308 10.2926C19.3991 10.2781 19.5229 10.1368 19.5078 9.97552C19.4974 9.85777 19.4142 9.76357 19.3055 9.72643L19.1779 8.33784L23.214 5.09597L24.6508 5.24905C24.6867 5.35413 24.7841 5.43565 24.906 5.44833C25.0733 5.46645 25.2246 5.3505 25.2435 5.19018C25.2624 5.02985 25.1414 4.88492 24.9741 4.86681C24.8521 4.85412 24.7387 4.9121 24.6792 5.0072L23.1346 4.84325L19.1505 8.04345L18.6949 3.08147L17.4821 2.15121C17.5105 2.04342 17.4736 1.92567 17.3772 1.8523C17.2458 1.75175 17.0539 1.77168 16.9481 1.89759C16.8432 2.02349 16.8639 2.20828 16.9953 2.30882Z" fill="#2966D3"/>
<path d="M15.8733 0.557974V7.63047L14.5207 6.55076L14.7551 3.99549C14.8638 3.95835 14.9461 3.86415 14.9574 3.74639C14.9725 3.58516 14.8478 3.44386 14.6805 3.42936C14.5122 3.41487 14.3647 3.53444 14.3496 3.69476C14.3392 3.81252 14.4026 3.9194 14.5027 3.97375L14.256 6.65583L15.8733 7.9466V11.2283L16.1267 11.2292V8.76363L17.744 7.47196L17.4973 4.78988C17.5974 4.73462 17.6617 4.62774 17.6504 4.51089C17.6353 4.34966 17.4878 4.231 17.3195 4.24549C17.1513 4.25998 17.0275 4.40129 17.0426 4.56252C17.053 4.68028 17.1352 4.77448 17.2449 4.81162L17.4793 7.36688L16.1257 8.4475V0.557974C16.2306 0.511778 16.3044 0.410328 16.3044 0.292574C16.3044 0.131341 16.1673 0 15.9991 0C15.8308 0 15.6937 0.131341 15.6937 0.292574C15.6947 0.410328 15.7684 0.511778 15.8733 0.557974Z" fill="#2966D3"/>
<path d="M15.0046 28.3561C14.9082 28.2828 14.7806 28.2746 14.6767 28.3235L13.548 27.4585L12.9469 20.9168C13.0471 20.8615 13.1113 20.7547 13.1 20.6378C13.0849 20.4766 12.9374 20.3579 12.7692 20.3724C12.6009 20.3869 12.4771 20.5282 12.4922 20.6894C12.5026 20.8072 12.5858 20.9014 12.6945 20.9385L12.8221 22.3271L8.78594 25.569L7.34919 25.4159C7.31327 25.3108 7.21591 25.2302 7.09397 25.2166C6.92667 25.1985 6.77543 25.3145 6.75652 25.4748C6.73762 25.6351 6.85861 25.78 7.02592 25.7982C7.14785 25.8108 7.26128 25.7529 7.32083 25.6578L8.86534 25.8217L12.8486 22.6224L13.3042 27.5844L14.5179 28.5147C14.4895 28.6225 14.5264 28.7402 14.6228 28.8136C14.7542 28.9141 14.946 28.8942 15.0519 28.7683C15.1568 28.6415 15.136 28.4567 15.0046 28.3561Z" fill="#2966D3"/>
<path d="M16.1267 30.107V23.0346L17.4802 24.1152L17.2458 26.6704C17.1371 26.7076 17.0549 26.8018 17.0435 26.9195C17.0284 27.0808 17.1532 27.2221 17.3205 27.2366C17.4887 27.2511 17.6362 27.1315 17.6513 26.9712C17.6617 26.8534 17.5984 26.7465 17.4982 26.6922L17.7449 24.0101L16.1276 22.7184V20.7882L16.1229 19.3914H15.8743V21.9014L14.257 23.1931L14.5037 25.8751C14.4035 25.9304 14.3392 26.0373 14.3506 26.1541C14.3657 26.3154 14.5131 26.434 14.6814 26.4195C14.8497 26.405 14.9735 26.2637 14.9584 26.1025C14.948 25.9847 14.8657 25.8905 14.7561 25.8534L14.5217 23.2981L15.8752 22.2175V30.107C15.7703 30.1532 15.6966 30.2547 15.6966 30.3724C15.6966 30.5337 15.8336 30.665 16.0019 30.665C16.1701 30.665 16.3072 30.5337 16.3072 30.3724C16.3053 30.2547 16.2316 30.1532 16.1267 30.107Z" fill="#2966D3"/>
<path d="M30.0197 16.241C29.8883 16.1404 29.6965 16.1604 29.5906 16.2863C29.514 16.3787 29.5046 16.5009 29.5566 16.6006L28.6539 17.6821L21.8274 18.2582C21.7697 18.1622 21.6582 18.1006 21.5362 18.1114C21.368 18.1259 21.2442 18.2672 21.2593 18.4285C21.2744 18.5897 21.4219 18.7084 21.5901 18.6939C21.713 18.6839 21.8113 18.6051 21.85 18.5L23.2991 18.3778L26.6821 22.2455L26.5223 23.6223C26.4127 23.6568 26.3286 23.7501 26.3144 23.8669C26.2955 24.0272 26.4165 24.1722 26.5838 24.1903C26.7511 24.2084 26.9023 24.0925 26.9212 23.9321C26.9345 23.8153 26.874 23.7066 26.7747 23.6495L26.9458 22.1694L23.6072 18.3524L28.7852 17.9158L29.756 16.7537C29.8685 16.7808 29.9914 16.7455 30.0679 16.6531C30.1729 16.5263 30.1511 16.3415 30.0197 16.241Z" fill="#2966D3"/>
<path d="M23.6063 12.3134L26.9108 8.53626L26.9458 8.4964L26.7747 7.01632C26.874 6.95926 26.9354 6.85147 26.9212 6.73371C26.9023 6.57338 26.752 6.45744 26.5838 6.47556C26.4165 6.49367 26.2955 6.6377 26.3144 6.79893C26.3276 6.91578 26.4127 7.00908 26.5223 7.0435L26.6821 8.42031L22.2801 13.4529C22.1686 13.424 22.0448 13.4557 21.9654 13.5462C21.8567 13.6703 21.8737 13.8542 22.0032 13.9584C22.1327 14.0626 22.3246 14.0462 22.4333 13.9221C22.5127 13.8316 22.524 13.7093 22.4749 13.6087L23.4087 12.5408L28.6548 12.9828L29.5575 14.0644C29.5055 14.1631 29.514 14.2863 29.5915 14.3787C29.6964 14.5046 29.8893 14.5254 30.0207 14.424C30.152 14.3225 30.1738 14.1386 30.0679 14.0127C29.9914 13.9203 29.8675 13.8859 29.756 13.9122L28.7852 12.7491L23.6063 12.3134Z" fill="#2966D3"/>
<path d="M31.6947 15.0399C31.5718 15.0399 31.466 15.1106 31.4177 15.2111H24.0374L25.165 13.9149L27.8315 14.1396C27.8703 14.2437 27.9686 14.3226 28.0915 14.3334C28.2597 14.3479 28.4072 14.2283 28.4223 14.068C28.4374 13.9077 28.3127 13.7655 28.1453 13.751C28.0225 13.741 27.9109 13.8017 27.8542 13.8977L25.0554 13.6613L23.7075 15.2111H22.3378C22.2896 15.1106 22.1837 15.0399 22.0609 15.0399C21.8926 15.0399 21.7556 15.1713 21.7556 15.3325C21.7556 15.4938 21.8926 15.6251 22.0609 15.6251C22.1837 15.6251 22.2896 15.5544 22.3378 15.4539H22.8549L24.2018 17.0037L27.0007 16.7673C27.0583 16.8633 27.1699 16.9249 27.2918 16.914C27.46 16.8996 27.5839 16.7583 27.5688 16.597C27.5536 16.4358 27.4062 16.3171 27.2379 16.3316C27.115 16.3416 27.0167 16.4213 26.978 16.5255L24.3115 16.7501L23.1847 15.4539H31.4177C31.466 15.5544 31.5718 15.6251 31.6947 15.6251C31.863 15.6251 32 15.4938 32 15.3325C32 15.1713 31.863 15.0399 31.6947 15.0399Z" fill="#2966D3"/>
<path d="M1.98028 14.424C2.11167 14.5245 2.30355 14.5046 2.40942 14.3787C2.48599 14.2863 2.49544 14.164 2.44345 14.0644L3.34615 12.9828L10.1726 12.4067C10.2303 12.5028 10.3418 12.5643 10.4638 12.5535C10.632 12.539 10.7558 12.3977 10.7407 12.2364C10.7256 12.0752 10.5781 11.9566 10.4099 11.971C10.287 11.981 10.1887 12.0598 10.15 12.1649L8.70091 12.2872L5.31791 8.4194L5.47765 7.04258C5.5873 7.00816 5.67143 6.91486 5.68561 6.79801C5.70451 6.63769 5.58352 6.49276 5.41621 6.47464C5.24891 6.45653 5.09767 6.57247 5.07877 6.7328C5.06553 6.84964 5.12603 6.95834 5.22528 7.01541L5.05419 8.49639L8.39276 12.3134L3.21476 12.75L2.24401 13.9131C2.13152 13.8859 2.00864 13.9212 1.93208 14.0136C1.82716 14.1386 1.8489 14.3234 1.98028 14.424Z" fill="#2966D3"/>
<path d="M8.39371 18.3516L5.08917 22.1288L5.05419 22.1686L5.22528 23.6487C5.12603 23.7058 5.06459 23.8135 5.07877 23.9313C5.09768 24.0916 5.24797 24.2076 5.41622 24.1894C5.58353 24.1713 5.70452 24.0273 5.68561 23.8661C5.67238 23.7492 5.58731 23.6559 5.47766 23.6215L5.31791 22.2447L9.71988 17.2121C9.83141 17.2411 9.95524 17.2093 10.0346 17.1188C10.1433 16.9947 10.1263 16.8108 9.99683 16.7066C9.86733 16.6025 9.67545 16.6188 9.56675 16.7429C9.48735 16.8334 9.476 16.9557 9.52516 17.0563L8.59126 18.1242L3.34521 17.6822L2.44251 16.6006C2.4945 16.5019 2.48599 16.3787 2.40848 16.2863C2.30356 16.1604 2.11073 16.1396 1.97934 16.241C1.84796 16.3416 1.82622 16.5264 1.93208 16.6523C2.00865 16.7447 2.13247 16.7791 2.24401 16.7528L3.21477 17.9159L8.39371 18.3516Z" fill="#2966D3"/>
<path d="M7.96172 15.4539L6.83405 16.7501L4.16754 16.5255C4.12879 16.4213 4.03048 16.3425 3.9076 16.3316C3.73935 16.3171 3.59189 16.4367 3.57677 16.597C3.56165 16.7582 3.68642 16.8996 3.85372 16.914C3.97661 16.924 4.08814 16.8633 4.14486 16.7673L6.9437 17.0028L8.2916 15.453H9.66125C9.70946 15.5535 9.81532 15.6242 9.9382 15.6242C10.1065 15.6242 10.2435 15.4928 10.2435 15.3316C10.2435 15.1704 10.1065 15.039 9.9382 15.039C9.81532 15.039 9.70946 15.1097 9.66125 15.2102H9.14421L7.79725 13.6604L4.9984 13.8968C4.94075 13.8008 4.82921 13.7392 4.70727 13.7501C4.53902 13.7646 4.41519 13.9059 4.43032 14.0671C4.44544 14.2283 4.5929 14.347 4.76115 14.3325C4.88403 14.3225 4.98234 14.2437 5.02109 14.1387L7.6876 13.914L8.81432 15.2102H0.582265C0.534058 15.1097 0.428192 15.039 0.305311 15.039C0.137059 15.039 0 15.1704 0 15.3316C0 15.4928 0.137059 15.6242 0.305311 15.6242C0.428192 15.6242 0.534058 15.5535 0.582265 15.453H7.96172V15.4539Z" fill="#2966D3"/>
<path d="M21.5939 9.7999L21.4342 8.11963L23.4853 6.47198C23.5893 6.51908 23.7179 6.50821 23.8124 6.43213C23.9419 6.32796 23.9589 6.14408 23.8502 6.01999C23.7415 5.89589 23.5496 5.87959 23.4201 5.98375C23.3256 6.05984 23.2916 6.1785 23.3227 6.28539L21.1695 8.01456L21.3604 10.0236L20.1089 11.2229C20.0002 11.1849 19.8745 11.2066 19.7866 11.2899C19.6675 11.4041 19.6675 11.5898 19.7866 11.7039C19.9057 11.818 20.0995 11.818 20.2186 11.7039C20.3056 11.6206 20.3282 11.4992 20.2885 11.3959L20.937 10.7745L23.0335 10.9575L24.838 8.89409C24.9495 8.92308 25.0733 8.89138 25.1527 8.8008C25.2614 8.6767 25.2444 8.49282 25.1149 8.38866C24.9854 8.28449 24.7935 8.30079 24.6848 8.42489C24.6054 8.51547 24.5941 8.63775 24.6432 8.7383L22.9239 10.7039L21.1704 10.5508L26.9922 4.97197C27.1009 5.01002 27.2266 4.98828 27.3145 4.90495C27.4336 4.79081 27.4336 4.60512 27.3145 4.49099C27.1954 4.37686 27.0016 4.37686 26.8825 4.49099C26.7955 4.57433 26.7729 4.6957 26.8126 4.79897L21.5939 9.7999Z" fill="#2966D3"/>
<path d="M10.4061 20.8652L10.5658 22.5454L8.51467 24.1931C8.41069 24.146 8.28214 24.1568 8.18761 24.2329C8.05812 24.3371 8.0411 24.521 8.1498 24.6451C8.25851 24.7692 8.45039 24.7855 8.57989 24.6813C8.67441 24.6052 8.70844 24.4866 8.67725 24.3797L10.8305 22.6505L10.6396 20.6414L11.5451 19.7737C11.6538 19.8117 11.7795 19.79 11.8665 19.7066C11.9856 19.5925 11.9856 19.4068 11.8665 19.2927C11.7474 19.1786 11.5536 19.1786 11.4345 19.2927C11.3475 19.376 11.3249 19.4974 11.3646 19.6007L11.0621 19.8905L8.96554 19.7075L7.16109 21.771C7.04955 21.742 6.92572 21.7737 6.84632 21.8643C6.73762 21.9884 6.75464 22.1722 6.88413 22.2764C7.01363 22.3806 7.20551 22.3643 7.31422 22.2402C7.39362 22.1496 7.40496 22.0273 7.35581 21.9268L9.07519 19.9612L10.8286 20.1143L5.0069 25.6931C4.89819 25.655 4.77248 25.6768 4.68552 25.7601C4.56642 25.8742 4.56642 26.0599 4.68552 26.1741C4.80462 26.2882 4.99839 26.2882 5.11749 26.1741C5.20445 26.0907 5.22714 25.9694 5.18744 25.8661L10.4061 20.8652Z" fill="#2966D3"/>
<path d="M24.906 25.2166C24.7841 25.2293 24.6867 25.3108 24.6508 25.4159L23.214 25.569L17.9623 21.3507C17.9926 21.2438 17.9595 21.1251 17.865 21.049C17.7355 20.9449 17.5436 20.9612 17.4349 21.0853C17.3262 21.2093 17.3432 21.3932 17.4727 21.4974C17.5672 21.5735 17.6948 21.5844 17.7997 21.5372L18.9142 22.4322L18.4529 27.4594L17.3243 28.3244C17.2212 28.2746 17.0927 28.2828 16.9963 28.357C16.8649 28.4576 16.8432 28.6424 16.949 28.7683C17.0549 28.8942 17.2468 28.915 17.3782 28.8136C17.4746 28.7402 17.5105 28.6215 17.4831 28.5146L18.6958 27.5844L19.1514 22.6224L23.0931 25.7891L23.1346 25.8226L24.6792 25.6586C24.7387 25.7538 24.8512 25.8126 24.9741 25.799C25.1414 25.7809 25.2624 25.6369 25.2435 25.4757C25.2246 25.3144 25.0733 25.1985 24.906 25.2166Z" fill="#2966D3"/>
<path d="M26.9912 25.694L21.7725 20.693L23.5269 20.54L25.2463 22.5056C25.1971 22.6052 25.2085 22.7284 25.2879 22.819C25.3966 22.9431 25.5885 22.9594 25.7179 22.8552C25.8474 22.751 25.8645 22.5671 25.7558 22.4431C25.6764 22.3525 25.5525 22.3199 25.441 22.3498L23.6365 20.2863L21.54 20.4693L20.0522 19.0436L19.8613 18.8606L19.6477 18.6559L19.0767 18.1088L18.8537 17.895L18.4841 17.8842L18.7194 18.1097L19.4699 18.8289L19.6836 19.0336L19.8745 19.2166L20.7592 20.0644L20.5683 22.0735L22.7216 23.8027C22.6913 23.9095 22.7244 24.0282 22.8189 24.1043C22.9484 24.2085 23.1403 24.1922 23.249 24.0681C23.3577 23.944 23.3407 23.7601 23.2112 23.6559C23.1167 23.5798 22.9891 23.569 22.8841 23.6161L20.833 21.9684L20.9927 20.2872L26.8135 25.8652C26.7728 25.9693 26.7955 26.0907 26.8834 26.1741C27.0025 26.2882 27.1963 26.2882 27.3154 26.1741C27.4345 26.0599 27.4345 25.8742 27.3154 25.7601C27.2265 25.6768 27.0999 25.655 26.9912 25.694Z" fill="#2966D3"/>
<path d="M7.09397 5.4484C7.21591 5.43571 7.31327 5.35419 7.34919 5.24912L8.78594 5.09604L14.0377 9.31436C14.0074 9.42124 14.0405 9.5399 14.135 9.61599C14.2645 9.72015 14.4564 9.70385 14.5651 9.57976C14.6738 9.45566 14.6568 9.27178 14.5273 9.16762C14.4328 9.09153 14.3052 9.08066 14.2003 9.12776L13.0858 8.23283L13.5471 3.20563L14.6757 2.34059C14.7787 2.39041 14.9073 2.38226 15.0037 2.30798C15.1351 2.20744 15.1568 2.02265 15.051 1.89675C14.946 1.77084 14.7532 1.75001 14.6218 1.85146C14.5254 1.92483 14.4895 2.04349 14.5169 2.15037L13.3042 3.08063L12.8486 8.04261L8.90693 4.87593L8.86534 4.84241L7.32083 5.00636C7.26128 4.91126 7.1488 4.85238 7.02592 4.86597C6.85861 4.88408 6.73762 5.0281 6.75652 5.18934C6.77543 5.35057 6.92667 5.46651 7.09397 5.4484Z" fill="#2966D3"/>
<path d="M5.00787 4.97107L10.2265 9.972L8.47311 10.1251L6.75372 8.15949C6.80287 8.05894 6.79153 7.93666 6.71213 7.84608C6.60343 7.72199 6.41155 7.70568 6.28205 7.80985C6.15255 7.91402 6.13554 8.09789 6.24424 8.22199C6.32364 8.31257 6.44747 8.34518 6.559 8.31529L8.36346 10.3787L10.46 10.1957L13.8042 13.4005L13.9375 13.184L13.8874 13.136L13.7759 13.0291L12.5319 11.837L12.3183 11.6323L12.1274 11.4494L11.2426 10.6015L11.4336 8.59246L9.28034 6.86329C9.31058 6.7564 9.2775 6.63774 9.18298 6.56166C9.05348 6.45749 8.8616 6.47379 8.7529 6.59789C8.64419 6.72198 8.66121 6.90586 8.79071 7.01003C8.88523 7.08611 9.01284 7.09698 9.11776 7.04988L11.1689 8.69753L11.0092 10.3787L5.18841 4.79987C5.22906 4.6957 5.20637 4.57433 5.11847 4.49099C4.99937 4.37686 4.80559 4.37686 4.68649 4.49099C4.56739 4.60512 4.56739 4.79081 4.68649 4.90494C4.77345 4.98828 4.90012 5.01002 5.00787 4.97107Z" fill="#2966D3"/>
<path d="M20.7196 15.0327C20.6033 15.0327 20.5022 15.0943 20.4483 15.1849H18.0965V13.5327L19.0522 12.6169C19.1571 12.6441 19.2743 12.6196 19.3565 12.5408C19.4785 12.424 19.4785 12.2338 19.3565 12.116C19.2336 11.9992 19.0361 11.9992 18.9132 12.116C18.831 12.1948 18.8045 12.3071 18.8338 12.4077L18.0965 13.1142V11.078L16.1541 11.0653V10.4973C16.2486 10.4457 16.3129 10.3497 16.3129 10.2374C16.3129 10.0716 16.173 9.93756 16 9.93756C15.827 9.93756 15.6871 10.0716 15.6871 10.2374C15.6871 10.3488 15.7514 10.4448 15.8459 10.4973V11.0644L15.1379 11.0598L13.7929 13.0082L12.5423 11.8099C12.5707 11.7093 12.5452 11.5979 12.4629 11.5182C12.341 11.4013 12.1425 11.4013 12.0196 11.5182C11.8967 11.635 11.8977 11.8253 12.0196 11.943C12.1018 12.0218 12.2191 12.0463 12.324 12.0191L13.618 13.2591L13.1189 13.9829C13.118 13.9829 13.118 13.9829 13.118 13.9829C13.0093 13.9756 12.8996 14.0227 12.8344 14.1169C12.7389 14.2546 12.7786 14.4412 12.9233 14.5327C13.0669 14.6242 13.2616 14.5861 13.3571 14.4475C13.4214 14.3542 13.4242 14.2383 13.3751 14.1459L13.8411 13.472L13.8562 13.4494L13.9989 13.2428L14.015 13.2202L15.3024 11.3551L15.8459 11.3588L15.8733 11.3597L16.1267 11.3606L16.1541 11.3615L17.7884 11.3724V15.4811H19.4756V17.8126H18.8064H18.3706H17.7884V19.3108H16.1541H15.8459H15.3837V17.8126H12.5253V15.1849H11.5527C11.4988 15.0943 11.3976 15.0327 11.2814 15.0327C11.1084 15.0327 10.9685 15.1668 10.9685 15.3325C10.9685 15.4983 11.1093 15.6323 11.2814 15.6323C11.3976 15.6323 11.4978 15.5716 11.5527 15.4802H12.2181V18.1079H12.8873L12.5971 18.386C12.4922 18.3588 12.376 18.3823 12.2928 18.4621C12.1708 18.5789 12.1708 18.7691 12.2928 18.8869C12.4157 19.0037 12.6132 19.0037 12.7361 18.8869C12.8193 18.8072 12.8448 18.6958 12.8155 18.5952L12.8164 18.5943L13.324 18.1079H15.0774V19.6061H15.8478V20.1686C15.7533 20.2202 15.689 20.3162 15.689 20.4286C15.689 20.5943 15.8289 20.7284 16.0019 20.7284C16.1749 20.7284 16.3148 20.5943 16.3148 20.4286C16.3148 20.3171 16.2505 20.2202 16.156 20.1686V19.607H18.0984V18.1088H18.6807L19.4605 18.8561C19.4321 18.9566 19.4577 19.0689 19.5399 19.1478C19.6618 19.2646 19.8603 19.2646 19.9832 19.1478C20.1052 19.0309 20.1052 18.8407 19.9832 18.7229C19.901 18.6441 19.7838 18.6197 19.6789 18.6468L19.1164 18.1079H19.7857V15.4802H20.4511C20.505 15.5707 20.6052 15.6323 20.7224 15.6323C20.8954 15.6323 21.0353 15.4983 21.0353 15.3325C21.0334 15.1668 20.8925 15.0327 20.7196 15.0327Z" fill="#2966D3"/>
<path d="M13.1482 15.4856V17.2718H15.8128V18.6686H15.845H16.1531H16.5369C16.5907 18.7592 16.6928 18.8207 16.81 18.8207C16.983 18.8207 17.1229 18.6858 17.1229 18.5209C17.1229 18.3552 16.9821 18.2211 16.81 18.2211C16.6938 18.2211 16.5917 18.2827 16.5369 18.3733H16.1531H16.121V16.9765H15.845H13.4563V15.5753L13.6605 15.2791L13.7257 15.1849L14.0896 14.6577C14.1984 14.6649 14.308 14.6178 14.3732 14.5236C14.4687 14.3859 14.429 14.1994 14.2844 14.1079C14.1407 14.0164 13.946 14.0544 13.8505 14.193C13.7862 14.2863 13.7834 14.4023 13.8325 14.4946L13.151 15.4811L13.1482 15.4856Z" fill="#2966D3"/>
<path d="M16.1541 12.0019L15.8459 12.0001L15.5576 11.9983L15.2892 12.3869C15.1805 12.3805 15.0708 12.4276 15.0065 12.5209C14.9101 12.6595 14.9508 12.8452 15.0954 12.9367C15.2391 13.0282 15.4338 12.9901 15.5293 12.8516C15.5935 12.7583 15.5964 12.6432 15.5463 12.5499L15.723 12.2945L15.8469 12.2954L16.155 12.2972L16.9707 12.3026V16.1387H18.5446V16.9766H17.7118C17.6579 16.886 17.5558 16.8244 17.4386 16.8244C17.4197 16.8244 17.4027 16.8253 17.3848 16.8289C17.3734 16.8307 17.363 16.8326 17.3526 16.8353C17.2212 16.8715 17.1258 16.9874 17.1258 17.1233C17.1258 17.29 17.2666 17.4231 17.4386 17.4231C17.5549 17.4231 17.657 17.3624 17.7118 17.271H18.8536V15.8416H17.2789V12.0073L16.1541 12.0019Z" fill="#2966D3"/>
<path d="M16.5841 14.0218C16.5841 13.856 16.4443 13.722 16.2713 13.722C16.2297 13.722 16.19 13.7301 16.1531 13.7446C16.1437 13.7483 16.1342 13.7519 16.1257 13.7564C16.0255 13.8071 15.9575 13.9068 15.9575 14.0227C15.9575 14.0372 15.9584 14.0508 15.9612 14.0644C15.9745 14.1586 16.034 14.2383 16.1172 14.2836V15.6903C16.0217 15.7419 15.9584 15.8397 15.9584 15.9521C15.9584 16.078 16.0397 16.1858 16.1541 16.2301C16.19 16.2446 16.2306 16.2528 16.2722 16.2528C16.3989 16.2528 16.5085 16.1794 16.5567 16.0753C16.5756 16.0381 16.5851 15.9965 16.5851 15.9521C16.5851 15.8407 16.5218 15.7428 16.4263 15.6903V14.2836C16.5208 14.232 16.5841 14.1341 16.5841 14.0218Z" fill="#2966D3"/>
</svg>
